<svg xmlns="http://www.w3.org/2000/svg" xmlns:xlink="http://www.w3.org/1999/xlink" viewBox="0 0 595.28 841.89"><defs><style>.cls-1{fill:#1e1e1e;}.cls-2{fill:url(#radial-gradient);}.cls-3{fill:#eae726;}</style><radialGradient id="radial-gradient" cx="291.43" cy="336.34" r="182.53" gradientUnits="userSpaceOnUse"><stop offset="0" stop-color="#fff200" stop-opacity="0.3"/><stop offset="0.26" stop-color="#f5e803" stop-opacity="0.29"/><stop offset="0.48" stop-color="#d5c90b" stop-opacity="0.25"/><stop offset="0.68" stop-color="#9f9519" stop-opacity="0.18"/><stop offset="0.87" stop-color="#544d2d" stop-opacity="0.08"/><stop offset="1" stop-color="#120d3e" stop-opacity="0"/></radialGradient></defs><g id="BG"><rect id="Main_BG-Blue" data-name="Main BG-Blue" class="cls-1" x="93.13" y="140.98" width="390.72" height="390.72" rx="31.6"/><circle id="Blue_Shade" data-name="Blue Shade" class="cls-2" cx="291.43" cy="336.34" r="182.53"/></g><g id="Letter"><g id="Letter_Group" data-name="Letter Group"><path id="C" class="cls-3" d="M357.79,399.89a91.67,91.67,0,0,1-51.17,15.29c-47.64,0-86.26-35.11-86.26-78.41s38.62-78.41,86.26-78.41a91.67,91.67,0,0,1,51.17,15.29l18.65-32.3a134.48,134.48,0,0,0-69.82-19.18c-69.63,0-126.07,51.31-126.07,114.6S237,451.37,306.62,451.37a134.57,134.57,0,0,0,69.82-19.17Z"/><rect id="R" class="cls-3" x="301.08" y="200.65" width="23.73" height="271.37"/><rect id="L" class="cls-3" x="257.7" y="200.65" width="23.73" height="271.37"/></g></g></svg>